<svg width="201" height="200" viewBox="0 0 201 200" fill="none" xmlns="http://www.w3.org/2000/svg">
<path d="M100.076 0C45.034 0 0 45 0 100C0 155 45.034 200 100.076 200C155.117 200 200.151 155 200.151 100C200.151 45 155.117 0 100.076 0ZM100.076 25C141.607 25 175.132 58.5 175.132 100C175.132 141.5 141.607 175 100.076 175C58.5442 175 25.0189 141.5 25.0189 100C25.0189 58.5 58.5442 25 100.076 25ZM100.076 50C72.5548 50 50.0378 72.5 50.0378 100C50.0378 127.5 72.5548 150 100.076 150C127.596 150 150.113 127.5 150.113 100C150.113 72.5 127.596 50 100.076 50ZM100.076 75C114.086 75 125.095 86 125.095 100C125.095 114 114.086 125 100.076 125C86.065 125 75.0567 114 75.0567 100C75.0567 86 86.065 75 100.076 75Z" fill="#F2F047"/>
</svg>
