<svg width="1120" height="800" viewBox="0 0 1120 800" fill="none" xmlns="http://www.w3.org/2000/svg">
<rect x="2.5" y="2.5" width="1115" height="795" fill="white" stroke="#4FBB37" stroke-width="5"/>
<rect x="2.5" y="2.5" width="195" height="295" fill="white" stroke="#4FBB37" stroke-width="5"/>
<rect x="202.5" y="2.5" width="195" height="295" fill="white" stroke="#4FBB37" stroke-width="5"/>
<rect x="747.5" y="2.5" width="370" height="295" fill="white" stroke="#4FBB37" stroke-width="5"/>
<rect x="2.5" y="502.5" width="370" height="295" fill="white" stroke="#4FBB37" stroke-width="5"/>
<rect x="562.5" y="2.5" width="195" height="295" fill="white" stroke="#4FBB37" stroke-width="5"/>
<rect x="191.5" y="2.5" width="195" height="295" fill="white" stroke="#4FBB37" stroke-width="5"/>
<rect x="372.5" y="2.5" width="195" height="295" fill="white" stroke="#4FBB37" stroke-width="5"/>
<rect x="362.5" y="502.5" width="195" height="295" fill="white" stroke="#4FBB37" stroke-width="5"/>
<rect x="562.5" y="502.5" width="195" height="295" fill="white" stroke="#4FBB37" stroke-width="5"/>
<rect x="922.5" y="502.5" width="195" height="295" fill="white" stroke="#4FBB37" stroke-width="5"/>
<rect x="551.5" y="502.5" width="232" height="295" fill="white" stroke="#4FBB37" stroke-width="5"/>
<rect x="762.5" y="502.5" width="165" height="295" fill="white" stroke="#4FBB37" stroke-width="5"/>
<path d="M87.0547 135.12V126.16L109.375 121.12V178H100.015V131.52L87.0547 135.12Z" fill="#2F8143"/>
<path d="M87.0547 135.12V126.16L109.375 121.12V178H100.015V131.52L87.0547 135.12Z" fill="#2F8143"/>
<path d="M266.459 178L292.379 150.72C293.713 149.28 294.859 147.893 295.819 146.56C296.779 145.227 297.499 143.893 297.979 142.56C298.459 141.227 298.699 139.813 298.699 138.32C298.699 137.253 298.486 136.213 298.059 135.2C297.686 134.133 297.073 133.173 296.219 132.32C295.419 131.467 294.433 130.8 293.259 130.32C292.086 129.787 290.726 129.52 289.179 129.52C287.046 129.52 285.206 130.027 283.659 131.04C282.113 132 280.913 133.413 280.059 135.28C279.259 137.147 278.859 139.307 278.859 141.76H269.499C269.499 137.76 270.246 134.213 271.739 131.12C273.286 127.973 275.526 125.52 278.459 123.76C281.446 121.947 285.073 121.04 289.339 121.04C292.593 121.04 295.419 121.573 297.819 122.64C300.219 123.653 302.193 124.987 303.739 126.64C305.339 128.293 306.513 130.107 307.259 132.08C308.059 134.053 308.459 135.973 308.459 137.84C308.459 140.773 307.739 143.6 306.299 146.32C304.913 149.04 303.073 151.467 300.779 153.6L284.859 169.2H309.179V178H266.459Z" fill="#2F8143"/>
<path d="M637.284 167.28L668.884 122H674.564V178H664.884V163.92L665.444 163.04V138.88L651.124 159.84H670.564L671.924 159.12H683.364V167.28H637.284Z" fill="#2F8143"/>
<path d="M953.652 159.76C953.652 163.013 953.092 165.84 951.972 168.24C950.852 170.64 949.305 172.64 947.332 174.24C945.359 175.787 943.119 176.96 940.612 177.76C938.159 178.507 935.572 178.88 932.852 178.88C929.439 178.88 926.425 178.427 923.812 177.52C921.199 176.613 918.932 175.413 917.012 173.92C915.092 172.373 913.412 170.72 911.972 168.96L917.492 162.16C918.612 163.6 919.919 164.933 921.412 166.16C922.959 167.333 924.612 168.293 926.372 169.04C928.132 169.733 929.892 170.08 931.652 170.08C934.212 170.08 936.372 169.653 938.132 168.8C939.892 167.947 941.225 166.693 942.132 165.04C943.092 163.387 943.572 161.44 943.572 159.2C943.572 156.907 943.039 154.96 941.972 153.36C940.905 151.76 939.465 150.533 937.652 149.68C935.839 148.827 933.839 148.4 931.652 148.4C930.052 148.4 928.452 148.533 926.852 148.8C925.305 149.013 923.705 149.44 922.052 150.08C920.452 150.72 918.692 151.627 916.772 152.8L924.372 122H953.092V130.32H931.492L927.972 143.12C929.359 142.427 930.799 141.92 932.292 141.6C933.785 141.28 935.305 141.12 936.852 141.12C939.945 141.12 942.772 141.893 945.332 143.44C947.892 144.987 949.919 147.147 951.412 149.92C952.905 152.693 953.652 155.973 953.652 159.76Z" fill="#2F8143"/>
<path d="M176.669 658.12C176.669 660.413 177.149 662.44 178.109 664.2C179.122 665.907 180.482 667.267 182.189 668.28C183.895 669.24 185.842 669.72 188.029 669.72C190.162 669.72 192.082 669.24 193.789 668.28C195.495 667.267 196.829 665.907 197.789 664.2C198.802 662.44 199.309 660.413 199.309 658.12C199.309 655.827 198.802 653.8 197.789 652.04C196.829 650.227 195.495 648.84 193.789 647.88C192.082 646.867 190.162 646.36 188.029 646.36C185.842 646.36 183.895 646.867 182.189 647.88C180.482 648.84 179.122 650.227 178.109 652.04C177.149 653.8 176.669 655.827 176.669 658.12ZM189.949 621.08H201.949L184.189 643.08L182.829 643.32C184.055 641.933 185.362 641.027 186.749 640.6C188.135 640.173 189.789 639.96 191.709 639.96C193.895 639.96 196.002 640.387 198.029 641.24C200.055 642.093 201.842 643.347 203.389 645C204.989 646.6 206.242 648.52 207.149 650.76C208.055 653 208.509 655.453 208.509 658.12C208.509 662.227 207.602 665.773 205.789 668.76C203.975 671.747 201.522 674.04 198.429 675.64C195.335 677.187 191.869 677.96 188.029 677.96C184.189 677.96 180.722 677.187 177.629 675.64C174.535 674.04 172.055 671.747 170.189 668.76C168.375 665.773 167.469 662.227 167.469 658.12C167.469 655.507 167.895 653.107 168.749 650.92C169.655 648.733 170.802 646.733 172.189 644.92L189.949 621.08Z" fill="#2F8143"/>
<path d="M982.055 634.12V625.16L1004.37 620.12V677H995.015V630.52L982.055 634.12ZM1026.43 649C1026.43 651.987 1026.72 654.733 1027.31 657.24C1027.89 659.747 1028.72 661.907 1029.79 663.72C1030.91 665.533 1032.24 666.947 1033.79 667.96C1035.33 668.92 1037.04 669.4 1038.91 669.4C1040.88 669.4 1042.61 668.92 1044.11 667.96C1045.65 666.947 1046.96 665.533 1048.03 663.72C1049.15 661.907 1050 659.747 1050.59 657.24C1051.17 654.733 1051.47 651.987 1051.47 649C1051.47 646.013 1051.17 643.267 1050.59 640.76C1050 638.253 1049.15 636.093 1048.03 634.28C1046.96 632.467 1045.65 631.08 1044.11 630.12C1042.61 629.107 1040.88 628.6 1038.91 628.6C1037.04 628.6 1035.33 629.107 1033.79 630.12C1032.24 631.08 1030.91 632.467 1029.79 634.28C1028.72 636.093 1027.89 638.253 1027.31 640.76C1026.72 643.267 1026.43 646.013 1026.43 649ZM1017.15 649C1017.15 643.187 1018.05 638.12 1019.87 633.8C1021.73 629.48 1024.29 626.12 1027.55 623.72C1030.85 621.32 1034.64 620.12 1038.91 620.12C1043.28 620.12 1047.09 621.32 1050.35 623.72C1053.65 626.12 1056.21 629.48 1058.03 633.8C1059.84 638.12 1060.75 643.187 1060.75 649C1060.75 654.813 1059.84 659.88 1058.03 664.2C1056.21 668.52 1053.65 671.88 1050.35 674.28C1047.09 676.68 1043.28 677.88 1038.91 677.88C1034.64 677.88 1030.85 676.68 1027.55 674.28C1024.29 671.88 1021.73 668.52 1019.87 664.2C1018.05 659.88 1017.15 654.813 1017.15 649Z" fill="#2F8143"/>
<path d="M856.309 641.88C856.309 639.587 855.802 637.587 854.789 635.88C853.829 634.12 852.495 632.76 850.789 631.8C849.082 630.787 847.162 630.28 845.029 630.28C842.842 630.28 840.895 630.787 839.189 631.8C837.482 632.76 836.122 634.12 835.109 635.88C834.149 637.587 833.669 639.587 833.669 641.88C833.669 644.173 834.149 646.2 835.109 647.96C836.122 649.72 837.482 651.107 839.189 652.12C840.895 653.133 842.842 653.64 845.029 653.64C847.162 653.64 849.082 653.133 850.789 652.12C852.495 651.107 853.829 649.72 854.789 647.96C855.802 646.2 856.309 644.173 856.309 641.88ZM843.029 678.92H831.029L848.789 656.92L850.229 656.68C848.949 658.067 847.615 658.973 846.229 659.4C844.842 659.827 843.215 660.04 841.349 660.04C839.109 660.04 836.975 659.613 834.949 658.76C832.922 657.907 831.109 656.68 829.509 655.08C827.962 653.427 826.735 651.48 825.829 649.24C824.922 647 824.469 644.547 824.469 641.88C824.469 637.72 825.375 634.173 827.189 631.24C829.055 628.253 831.535 625.987 834.629 624.44C837.722 622.84 841.189 622.04 845.029 622.04C848.869 622.04 852.335 622.84 855.429 624.44C858.522 625.987 860.975 628.253 862.789 631.24C864.602 634.173 865.509 637.72 865.509 641.88C865.509 644.493 865.055 646.893 864.149 649.08C863.295 651.267 862.175 653.267 860.789 655.08L843.029 678.92Z" fill="#2F8143"/>
<path d="M644.195 634.52C644.195 631.64 644.942 629.133 646.435 627C647.928 624.813 649.928 623.107 652.435 621.88C654.995 620.653 657.848 620.04 660.995 620.04C664.142 620.04 666.968 620.653 669.475 621.88C672.035 623.107 674.062 624.813 675.555 627C677.102 629.133 677.875 631.64 677.875 634.52C677.875 636.867 677.422 638.947 676.515 640.76C675.608 642.52 674.382 644.013 672.835 645.24C671.288 646.467 669.502 647.4 667.475 648.04C665.448 648.68 663.288 649 660.995 649C658.702 649 656.542 648.68 654.515 648.04C652.488 647.4 650.702 646.467 649.155 645.24C647.608 644.013 646.382 642.52 645.475 640.76C644.622 638.947 644.195 636.867 644.195 634.52ZM653.155 635.48C653.155 637.08 653.502 638.467 654.195 639.64C654.942 640.813 655.902 641.747 657.075 642.44C658.248 643.08 659.555 643.4 660.995 643.4C662.435 643.4 663.742 643.08 664.915 642.44C666.142 641.747 667.102 640.813 667.795 639.64C668.488 638.467 668.835 637.08 668.835 635.48C668.835 633.933 668.488 632.547 667.795 631.32C667.155 630.093 666.248 629.16 665.075 628.52C663.902 627.827 662.542 627.48 660.995 627.48C659.502 627.48 658.142 627.827 656.915 628.52C655.742 629.16 654.808 630.093 654.115 631.32C653.475 632.547 653.155 633.933 653.155 635.48ZM642.195 661.8C642.195 659.08 642.728 656.707 643.795 654.68C644.862 652.653 646.302 650.973 648.115 649.64C649.928 648.253 651.955 647.24 654.195 646.6C656.435 645.96 658.702 645.64 660.995 645.64C663.288 645.64 665.555 645.96 667.795 646.6C670.035 647.24 672.062 648.253 673.875 649.64C675.688 650.973 677.128 652.653 678.195 654.68C679.315 656.707 679.875 659.08 679.875 661.8C679.875 664.147 679.368 666.307 678.355 668.28C677.395 670.2 676.035 671.907 674.275 673.4C672.568 674.84 670.568 675.96 668.275 676.76C666.035 677.56 663.608 677.96 660.995 677.96C658.382 677.96 655.928 677.56 653.635 676.76C651.395 675.96 649.395 674.84 647.635 673.4C645.928 671.907 644.595 670.2 643.635 668.28C642.675 666.307 642.195 664.147 642.195 661.8ZM651.475 660.52C651.475 662.547 651.902 664.28 652.755 665.72C653.662 667.107 654.835 668.173 656.275 668.92C657.768 669.667 659.342 670.04 660.995 670.04C662.648 670.04 664.195 669.667 665.635 668.92C667.128 668.173 668.328 667.107 669.235 665.72C670.142 664.28 670.595 662.547 670.595 660.52C670.595 658.76 670.142 657.16 669.235 655.72C668.328 654.28 667.128 653.16 665.635 652.36C664.195 651.507 662.648 651.08 660.995 651.08C659.342 651.08 657.768 651.507 656.275 652.36C654.835 653.16 653.662 654.28 652.755 655.72C651.902 657.16 651.475 658.76 651.475 660.52Z" fill="#2F8143"/>
<path d="M437.173 629.88V621H478.933L452.053 677H441.973L464.933 629.88H437.173Z" fill="#2F8143"/>
<path d="M467.913 150.56V145.52C469.62 145.52 471.14 145.307 472.473 144.88C473.806 144.4 474.926 143.76 475.833 142.96C476.793 142.16 477.513 141.227 477.993 140.16C478.526 139.04 478.793 137.893 478.793 136.72C478.793 135.227 478.5 133.92 477.913 132.8C477.326 131.627 476.473 130.72 475.353 130.08C474.233 129.44 472.846 129.12 471.193 129.12C468.74 129.12 466.686 129.867 465.033 131.36C463.433 132.8 462.633 134.64 462.633 136.88H453.753C453.753 133.787 454.473 131.067 455.913 128.72C457.406 126.373 459.46 124.533 462.073 123.2C464.686 121.813 467.7 121.12 471.113 121.12C474.74 121.12 477.833 121.813 480.393 123.2C482.953 124.587 484.9 126.427 486.233 128.72C487.62 130.96 488.313 133.467 488.313 136.24C488.313 139.067 487.433 141.573 485.673 143.76C483.913 145.947 481.486 147.627 478.393 148.8C475.353 149.973 471.86 150.56 467.913 150.56ZM470.713 178.96C467.726 178.96 465.033 178.533 462.633 177.68C460.233 176.773 458.206 175.547 456.553 174C454.9 172.4 453.62 170.587 452.713 168.56C451.806 166.48 451.353 164.293 451.353 162H460.793C460.793 163.813 461.22 165.387 462.073 166.72C462.98 168 464.206 169.013 465.753 169.76C467.3 170.453 469.006 170.8 470.873 170.8C472.793 170.8 474.446 170.453 475.833 169.76C477.273 169.067 478.393 168.08 479.193 166.8C479.993 165.467 480.393 163.867 480.393 162C480.393 160.507 480.1 159.173 479.513 158C478.926 156.827 478.073 155.84 476.953 155.04C475.886 154.24 474.58 153.627 473.033 153.2C471.486 152.773 469.78 152.56 467.913 152.56V147.2C471.006 147.2 473.886 147.52 476.553 148.16C479.22 148.747 481.54 149.68 483.513 150.96C485.54 152.187 487.113 153.813 488.233 155.84C489.353 157.813 489.913 160.213 489.913 163.04C489.913 166.187 489.113 168.96 487.513 171.36C485.913 173.76 483.673 175.627 480.793 176.96C477.913 178.293 474.553 178.96 470.713 178.96Z" fill="#2F8143"/>
</svg>
